
<?xml version="1.0" encoding="utf-8"?>
<!-- Generator: Adobe Illustrator 16.0.0, SVG Export Plug-In . SVG Version: 6.00 Build 0)  -->
<!DOCTYPE svg PUBLIC "-//W3C//DTD SVG 1.1//EN" "http://www.w3.org/Graphics/SVG/1.1/DTD/svg11.dtd">
<svg version="1.1" id="Layer_1" xmlns="http://www.w3.org/2000/svg" xmlns:xlink="http://www.w3.org/1999/xlink" x="0px" y="0px"
	 width="66px" height="66px" viewBox="0 0 66 66" enable-background="new 0 0 66 66" xml:space="preserve">
<g>
	<path fill="#BF691B" d="M48.625,44.585c0,10.218-6.995,15.5-15.625,15.5s-15.625-5.282-15.625-15.5s6.995-18.5,15.625-18.5
		S48.625,34.367,48.625,44.585z"/>
	<path fill="#B2590F" d="M33,26.085c8.63,0,15.625,8.282,15.625,18.5S41.63,60.085,33,60.085"/>
	<g>
		<ellipse fill="#61C5F2" cx="33" cy="28.497" rx="11.081" ry="7.76"/>
		<path fill="#2FADF4" d="M33,20.736c6.12,0,11.081,3.476,11.081,7.761S39.12,36.257,33,36.257"/>
		<path fill="#D67D34" d="M50.897,9.735c0-3.125-2.533-5.658-5.658-5.658c-2.723,0-4.992,1.922-5.535,4.481
			C37.68,7.656,35.405,7.148,33,7.148s-4.68,0.508-6.704,1.41c-0.543-2.56-2.813-4.481-5.535-4.481
			c-3.125,0-5.658,2.533-5.658,5.658c0,2.567,1.711,4.732,4.053,5.426c-0.938,1.811-1.465,3.836-1.465,5.974
			c0,7.725,6.854,11.719,15.31,11.719c8.454,0,15.31-3.994,15.31-11.719c0-2.138-0.527-4.163-1.465-5.974
			C49.187,14.468,50.897,12.303,50.897,9.735z"/>
		<path fill="#BF691B" d="M50.897,9.735c0-3.125-2.533-5.658-5.658-5.658c-2.723,0-4.992,1.848-5.535,4.407
			C37.68,7.582,35.405,7,33,7l0,0v25.854l0,0c8.454,0,15.31-3.921,15.31-11.646c0-2.138-0.527-4.2-1.465-6.011
			C49.187,14.504,50.897,12.303,50.897,9.735z"/>
		<g>
			<g>
				<g>
					<g>
						<g>
							<path fill="#00233F" d="M26.485,13.88c-1.088,0.07-1.945,0.552-1.913,1.076l3.95-0.252
								C28.488,14.185,27.576,13.812,26.485,13.88z"/>
						</g>
					</g>
					<g>
						<g>
							<path fill="#00233F" d="M39.515,13.88c1.089,0.07,1.946,0.552,1.915,1.076l-3.951-0.252
								C37.508,14.185,38.423,13.812,39.515,13.88z"/>
						</g>
					</g>
				</g>
				<path fill="#EF893C" d="M25.761,22.616c-2.607,0-4.721,0.601-4.721,1.339s2.113,0.394,4.721,0.394
					c2.605,0,4.718,0.345,4.718-0.394S28.366,22.616,25.761,22.616z"/>
				<path fill="#EF893C" d="M40.241,22.616c-2.611,0-4.719,0.601-4.719,1.339s2.107,0.394,4.719,0.394
					c2.604,0,4.718,0.345,4.718-0.394S42.845,22.616,40.241,22.616z"/>
				<g>
					<path fill="#A55311" d="M28.761,21.646c0,1.064-0.861,1.926-1.928,1.926c-1.059,0-1.92-0.861-1.92-1.926
						c0-1.063,0.861-1.926,1.92-1.926C27.899,19.72,28.761,20.582,28.761,21.646z"/>
					<path fill="#A55311" d="M41.318,21.646c0,1.064-0.86,1.926-1.927,1.926c-1.061,0-1.926-0.861-1.926-1.926
						c0-1.063,0.865-1.926,1.926-1.926C40.458,19.72,41.318,20.582,41.318,21.646z"/>
					<path fill="#1E4784" d="M28.761,21.097c0,1.062-0.861,1.924-1.928,1.924c-1.059,0-1.92-0.861-1.92-1.924
						c0-1.064,0.861-1.926,1.92-1.926C27.899,19.171,28.761,20.032,28.761,21.097z"/>
					<path fill="#00233F" d="M26.833,19.171c1.066,0,1.928,0.861,1.928,1.926c0,1.062-0.861,1.924-1.928,1.924"/>
					<path fill="#1E4784" d="M41.318,21.097c0,1.062-0.86,1.924-1.927,1.924c-1.061,0-1.926-0.861-1.926-1.924
						c0-1.064,0.865-1.926,1.926-1.926C40.458,19.171,41.318,20.032,41.318,21.097z"/>
					<path fill="#00233F" d="M39.392,19.171c1.066,0,1.927,0.861,1.927,1.926c0,1.062-0.86,1.924-1.927,1.924"/>
				</g>
			</g>
		</g>
		<g>
			<path fill="#AA550E" d="M23.739,7.677c1.311,1.311,0.682,2.514-0.793,3.987s-3.237,2.662-4.548,1.351
				c-1.31-1.311-1.177-3.568,0.298-5.042S22.429,6.366,23.739,7.677z"/>
			<path fill="#873D06" d="M23.739,7.677c1.311,1.311,0.682,2.514-0.793,3.987s-3.237,2.662-4.548,1.351"/>
			<path fill="#AA550E" d="M42.261,7.677c-1.311,1.311-0.683,2.514,0.792,3.987s3.237,2.662,4.549,1.351
				c1.31-1.311,1.177-3.568-0.298-5.042S43.57,6.366,42.261,7.677z"/>
			<path fill="#873D06" d="M42.261,7.677c-1.311,1.311-0.683,2.514,0.792,3.987s3.237,2.662,4.549,1.351"/>
		</g>
		<path fill="#7F144F" d="M36.355,24.337c0,0.946-1.503,2.272-3.355,2.272c-1.854,0-3.356-1.326-3.356-2.272
			c0-0.945,1.503-1.713,3.356-1.713C34.853,22.624,36.355,23.392,36.355,24.337z"/>
		<path fill="#560435" d="M33,22.624c1.853,0,3.355,0.768,3.355,1.713c0,0.946-1.503,2.272-3.355,2.272"/>
		
			<ellipse transform="matrix(0.9512 -0.3086 0.3086 0.9512 -5.6863 10.9095)" fill="#AF688F" cx="31.64" cy="23.428" rx="1.084" ry="0.352"/>
		<circle fill="#AF688F" cx="30.207" cy="24.232" r="0.245"/>
		<g>
			<g>
				<circle fill="#BF691B" cx="25.895" cy="26.138" r="0.472"/>
				<circle fill="#BF691B" cx="27.887" cy="27.221" r="0.472"/>
				<circle fill="#BF691B" cx="24.881" cy="28.095" r="0.472"/>
			</g>
			<g>
				<circle fill="#D67D34" cx="40.104" cy="26.138" r="0.472"/>
				<circle fill="#D67D34" cx="38.112" cy="27.221" r="0.472"/>
				<circle fill="#D67D34" cx="41.118" cy="28.095" r="0.472"/>
			</g>
		</g>
		<path fill="#BF691B" d="M34.265,6.412c-1.324-1.218-1.852-2.959-1.355-4.185C32.2,2.688,31.638,3.425,31.383,4.34
			c-0.522,1.876,0.444,3.781,2.157,4.259c1.176,0.326,2.399-0.105,3.219-1.017C35.937,7.519,35.038,7.124,34.265,6.412z"/>
		<path fill="#BF691B" d="M32.353,6.62c-1.216-0.631-1.951-1.805-1.832-2.806c-0.428,0.48-0.695,1.135-0.699,1.858
			c-0.01,1.482,1.081,2.689,2.436,2.699c0.93,0.006,1.742-0.557,2.163-1.39C33.803,7.101,33.064,6.988,32.353,6.62z"/>
		<path fill="#BF691B" d="M31.767,7.96c-1.356-0.195-2.437-1.062-2.654-2.046c-0.246,0.595-0.283,1.301-0.049,1.985
			c0.479,1.402,1.907,2.184,3.188,1.748c0.88-0.303,1.463-1.1,1.585-2.024C33.293,7.937,32.56,8.074,31.767,7.96z"/>
	</g>
	<path fill="#EFBC73" d="M42.75,46.875c0,6.397-4.365,11.585-9.75,11.585s-9.75-5.188-9.75-11.585c0-6.398,4.365-8.249,9.75-8.249
		S42.75,40.477,42.75,46.875z"/>
	<path fill="#DDA55B" d="M33,38.626c5.385,0,9.75,1.851,9.75,8.249c0,6.397-4.365,11.585-9.75,11.585"/>
	<g>
		<g>
			<path fill="#BF691B" d="M22.375,36.864c-2.745,3.049-8.229,2.583-12.246-1.036c-4.018-3.618-3.131-7.296-0.386-10.343
				c2.744-3.048,4.58-2.393,8.597,1.227C22.358,30.333,25.119,33.818,22.375,36.864z"/>
			<path fill="#B2590F" d="M22.375,36.864c-2.745,3.049-8.229,2.583-12.246-1.036c-4.018-3.618-3.131-7.296-0.386-10.343"/>
			
				<ellipse transform="matrix(0.5576 -0.8301 0.8301 0.5576 -18.3455 21.5884)" fill="#EFBC73" cx="11.083" cy="28.007" rx="3.558" ry="1.689"/>
			<path fill="#DDA55B" d="M13.066,25.054c0.772,0.519,0.513,2.264-0.582,3.895c-1.096,1.63-2.61,2.53-3.386,2.012"/>
		</g>
		<g>
			<path fill="#BF691B" d="M43.624,36.864c2.745,3.049,8.229,2.583,12.246-1.036c4.018-3.618,3.131-7.296,0.386-10.343
				c-2.744-3.048-4.58-2.393-8.597,1.227C43.641,30.333,40.88,33.818,43.624,36.864z"/>
			<path fill="#B2590F" d="M43.624,36.864c2.745,3.049,8.229,2.583,12.246-1.036c4.018-3.618,3.131-7.296,0.386-10.343"/>
			
				<ellipse transform="matrix(-0.5576 -0.8301 0.8301 -0.5576 62.2923 89.2098)" fill="#EFBC73" cx="54.917" cy="28.007" rx="3.558" ry="1.689"/>
			<path fill="#DDA55B" d="M52.933,25.054c-0.772,0.519-0.513,2.264,0.582,3.895c1.096,1.63,2.61,2.53,3.386,2.012"/>
		</g>
	</g>
	<g>
		<g>
			<path fill="#BF691B" d="M24.506,55.438c1.124,3.961,10.975,3.08,5.361,4.673c-5.61,1.593-17.929,7.189-22.955,0.32
				c-2.433-3.324-2.518-10.172,4.049-9.64C16.777,51.262,23.381,51.476,24.506,55.438z"/>
			<path fill="#B2590F" d="M24.506,55.438c1.124,3.961,10.975,3.08,5.361,4.673c-5.61,1.593-17.929,7.189-22.955,0.32"/>
			<path fill="#EFBC73" d="M10.503,56.899c0.894,2.117,0.919,4.133,0.056,4.498c-0.865,0.367-2.292-1.057-3.187-3.176
				c-0.896-2.117-0.919-4.132-0.058-4.497C8.182,53.36,9.606,54.778,10.503,56.899z"/>
		</g>
		<g>
			<path fill="#BF691B" d="M41.494,55.438c-1.124,3.961-10.975,3.08-5.361,4.673c5.61,1.593,17.929,7.189,22.955,0.32
				c2.433-3.324,2.518-10.172-4.05-9.64C49.223,51.262,42.619,51.476,41.494,55.438z"/>
			<path fill="#B2590F" d="M41.494,55.438c-1.124,3.961-10.975,3.08-5.361,4.673c5.61,1.593,17.929,7.189,22.955,0.32"/>
			<path fill="#EFBC73" d="M55.497,56.899c-0.894,2.117-0.919,4.133-0.056,4.498c0.865,0.367,2.292-1.057,3.187-3.176
				c0.896-2.117,0.919-4.132,0.058-4.497C57.818,53.36,56.394,54.778,55.497,56.899z"/>
		</g>
	</g>
</g>
</svg>
